Coordinates
version=1
nRows=16
nColumns=22
inDegrees=yes

Units are S.I. units (second, meters, Newtons, ...)
If the header above contains a line with 'inDegrees', this indicates whether rotational values are in degrees (yes) or radians (no).

endheader
time	pelvis_tilt	pelvis_list	pelvis_rotation	pelvis_tx	pelvis_ty	pelvis_tz	hip_flexion_r	hip_adduction_r	hip_rotation_r	knee_angle_r	ankle_angle_r	subtalar_angle_r	hip_flexion_l	hip_adduction_l	hip_rotation_l	knee_angle_l	ankle_angle_l	subtalar_angle_l	lumbar_extension	lumbar_bending	lumbar_rotation
      6.45000000	     -6.11603140	     -2.96879718	    309.39340767	     -0.43346558	      0.95544675	      0.71810079	     28.49913331	     -0.98613990	     -2.21777969	    -22.82528399	      3.37101086	      8.04807441	     -6.11371231	      2.51467951	     31.85760595	    -14.83920758	     14.88839341	    -12.66711338	     -0.48428640	      3.45713023	    -11.85638497
      6.46000000	     -6.04912561	     -3.04866836	    310.39759845	     -0.42895900	      0.95484819	      0.72389598	     28.58843496	     -0.78947669	     -2.07489407	    -21.48631534	      3.65416281	      8.56933794	     -6.72804446	      2.23001973	     32.52594640	    -14.64440100	     14.95207052	    -12.49775228	     -0.56705564	      3.46086619	    -11.85471055
      6.47000000	     -5.96486100	     -3.13071887	    311.38217364	     -0.42440304	      0.95425672	      0.72972531	     28.61386782	     -0.58540504	     -1.78793124	    -20.14688298	      3.97036259	      9.16248571	     -7.35261685	      1.94343916	     33.16903267	    -14.45233012	     14.99499399	    -12.28543802	     -0.67034310	      3.45167336	    -11.83197335
      6.48000000	     -5.86303885	     -3.20565615	    312.36026082	     -0.41976149	      0.95365331	      0.73558562	     28.57907145	     -0.38905069	     -1.35716724	    -18.81671435	      4.30651457	      9.80613926	     -7.97145888	      1.66659377	     33.78920386	    -14.28303720	     15.02541274	    -12.03951307	     -0.78318638	      3.42448852	    -11.81583021
      6.49000000	     -5.74106009	     -3.27386762	    313.34599917	     -0.41498245	      0.95303410	      0.74145602	     28.48200063	     -0.21575868	     -0.80324458	    -17.51279809	      4.65155176	     10.46323817	     -8.58633043	      1.40335982	     34.40529684	    -14.14013315	     15.03642607	    -11.77109624	     -0.90583060	      3.38302726	    -11.82022088
      6.50000000	     -5.60589894	     -3.32672213	    314.32814862	     -0.41006408	      0.95238082	      0.74734877	     28.34384970	     -0.06570299	     -0.10879506	    -16.26436239	      4.96494131	     11.20883353	     -9.18601232	      1.15859264	     35.01847421	    -14.03153765	     15.04922579	    -11.46439255	     -1.02505720	      3.32930221	    -11.81645875
      6.51000000	     -5.43729537	     -3.37814688	    315.34119038	     -0.40493101	      0.95171632	      0.75325870	     28.14908969	      0.03918595	      0.65415187	    -15.11729268	      5.28289533	     11.80673761	     -9.80171444	      0.93120733	     35.66161105	    -13.94796738	     15.02022755	    -11.17163258	     -1.15840088	      3.25859487	    -11.86520225
      6.52000000	     -5.23822790	     -3.40866693	    316.37265017	     -0.39961545	      0.95101434	      0.75919437	     27.93957631	      0.09691405	      1.49584188	    -14.12757685	      5.59237247	     12.25000887	    -10.41874350	      0.73300594	     36.33505675	    -13.88895590	     14.95203784	    -10.89936903	     -1.29283337	      3.15774263	    -11.94835253
      6.53000000	     -5.03293786	     -3.44360557	    317.40059747	     -0.39412255	      0.95027962	      0.76516787	     27.71801444	      0.14906099	      2.41380637	    -13.30838929	      5.79804042	     12.75773730	    -11.03169396	      0.53642512	     36.99533343	    -13.87486975	     14.91699873	    -10.57768859	     -1.42678514	      3.07036927	    -12.01473930
      6.54000000	     -4.80489176	     -3.43797801	    318.45226079	     -0.38845523	      0.94948272	      0.77117560	     27.54321849	      0.15296891	      3.36977974	    -12.75062595	      5.97389531	     13.00489392	    -11.62472876	      0.37876792	     37.70069886	    -13.89340984	     14.81061373	    -10.32722359	     -1.53813299	      2.94038591	    -12.11710159
      6.55000000	     -4.58098518	     -3.45431159	    319.49872418	     -0.38265377	      0.94866966	      0.77727006	     27.37585500	      0.18869773	      4.38385871	    -12.43017164	      5.99316113	     13.24961028	    -12.22222703	      0.19473919	     38.38899754	    -13.94994353	     14.73835568	    -10.05085710	     -1.65463548	      2.84017894	    -12.22709789
      6.56000000	     -4.37287296	     -3.46680632	    320.54754239	     -0.37672229	      0.94782019	      0.78345130	     27.25061656	      0.24661099	      5.45296727	    -12.36464354	      5.83662394	     13.43999748	    -12.78965633	     -0.00160387	     39.07139795	    -14.05525275	     14.66455008	     -9.77359891	     -1.74352137	      2.75248271	    -12.33538244
      6.57000000	     -4.19678922	     -3.49478008	    321.59172326	     -0.37067273	      0.94695638	      0.78975381	     27.15676054	      0.35985761	      6.59934412	    -12.53618062	      5.45999752	     13.58912936	    -13.32599752	     -0.23582742	     39.72905289	    -14.21062553	     14.60196719	     -9.47453829	     -1.80289475	      2.70210445	    -12.43622341
      6.58000000	     -4.09718326	     -3.50399390	    322.63237196	     -0.36454367	      0.94602747	      0.79614461	     27.16469123	      0.52939157	      7.82775198	    -12.94825734	      4.80071310	     13.67090035	    -13.75542324	     -0.49801085	     40.36566545	    -14.43987259	     14.50416098	     -9.30132174	     -1.77141508	      2.68863440	    -12.53373710
      6.59000000	     -3.98845380	     -3.60753353	    323.64877355	     -0.35831397	      0.94525142	      0.80276244	     27.11658309	      0.81030007	      9.13396518	    -13.58152154	      3.90964619	     13.70170504	    -14.26389812	     -0.85557687	     40.92992041	    -14.65775669	     14.42733940	     -8.82931720	     -1.79737471	      2.74383118	    -12.64091563
      6.60000000	     -3.97170656	     -3.70032787	    324.64449380	     -0.35203068	      0.94445535	      0.80948016	     27.19885223	      1.16955778	     10.46898413	    -14.45434140	      2.78656364	     13.74371001	    -14.65747451	     -1.25137587	     41.46275856	    -14.93748321	     14.27115233	     -8.58578258	     -1.72005639	      2.84872071	    -12.72296566
